<?xml version="1.0" encoding="UTF-8"?>
<svg xmlns="http://www.w3.org/2000/svg" xmlns:xlink="http://www.w3.org/1999/xlink" width="2406" height="2406" viewBox="0 0 2406 2406">
<path fill-rule="nonzero" fill="rgb(100%, 100%, 100%)" fill-opacity="1" d="M 932.914062 1715.914062 L 1472.914062 1715.914062 L 1472.914062 689.164062 L 932.914062 689.164062 Z M 932.914062 1715.914062 "/>
<path fill-rule="nonzero" fill="rgb(100%, 100%, 100%)" fill-opacity="1" d="M 2.914062 0 C 2.140625 0 1.398438 0.308594 0.851562 0.851562 C 0.308594 1.398438 0 2.140625 0 2.910156 L 0 2402.914062 C 0 2404.523438 1.304688 2405.828125 2.914062 2405.828125 L 2402.910156 2405.828125 C 2403.691406 2405.828125 2404.429688 2405.519531 2404.980469 2404.976562 C 2405.519531 2404.429688 2405.828125 2403.6875 2405.828125 2402.914062 L 2405.828125 2.910156 C 2405.828125 1.308594 2404.519531 0 2402.910156 0 Z M 2.914062 0 "/>
<path fill-rule="nonzero" fill="rgb(30.979919%, 46.655273%, 30.979919%)" fill-opacity="1" d="M 698.503906 835.589844 L 690.886719 678.890625 L 1125.699219 594.941406 L 1812.589844 658.53125 L 1297.910156 734.980469 L 1324.179688 907.089844 L 698.503906 835.589844 "/>
<path fill-rule="nonzero" fill="rgb(18.431091%, 18.431091%, 31.762695%)" fill-opacity="1" d="M 759.277344 845.351562 L 629.523438 907.058594 L 1629.730469 1024.121094 L 1876.691406 873.878906 L 1350.578125 926.660156 L 759.277344 845.351562 "/>
<path fill-rule="nonzero" fill="rgb(32.93457%, 32.93457%, 54.492188%)" fill-opacity="1" d="M 577.300781 909.828125 L 575.109375 930.910156 C 565.320312 1010.839844 567.867188 1072.199219 582.75 1114.988281 L 1652.75 1215.429688 L 1645.789062 1028.5 L 577.300781 909.828125 "/>
<path fill-rule="nonzero" fill="rgb(54.492188%, 41.575623%, 32.93457%)" fill-opacity="1" d="M 645.769531 1312.449219 L 643.03125 1305.859375 C 630.355469 1277.609375 624.0625 1251.871094 624.148438 1228.660156 C 623.59375 1208.289062 631.46875 1174.128906 647.769531 1126.191406 L 1411.371094 1204 L 1414.898438 1419.527344 L 645.769531 1312.449219 "/>
<path fill-rule="nonzero" fill="rgb(44.309998%, 33.325195%, 25.87738%)" fill-opacity="1" d="M 1886.398438 1064.980469 L 1782.070312 1157.351562 C 1845.96875 1145.191406 1909.859375 1133.039062 1973.761719 1120.890625 L 1886.398438 1064.980469 "/>
<path fill-rule="nonzero" fill="rgb(81.25%, 81.25%, 81.25%)" fill-opacity="1" d="M 1424.128906 1410.300781 L 1420.769531 1404.589844 C 1405.371094 1380.679688 1396.910156 1355.859375 1395.398438 1330.121094 C 1393.398438 1307.890625 1399.378906 1265.519531 1413.359375 1203.011719 L 1664.21875 1224.339844 L 1756.910156 1164.378906 L 1950.039062 1141.738281 L 1922.421875 1332.789062 L 1424.128906 1410.300781 "/>
<path fill-rule="nonzero" fill="rgb(81.25%, 81.25%, 81.25%)" fill-opacity="1" d="M 1880.46875 886.390625 L 1648.460938 1022.628906 L 1657.019531 1221.488281 C 1740.480469 1161.210938 1823.949219 1100.921875 1907.421875 1040.640625 L 1880.46875 886.390625 "/>
<path fill-rule="nonzero" fill="rgb(81.25%, 81.25%, 81.25%)" fill-opacity="1" d="M 1348 907.960938 L 1344.980469 905.859375 C 1324.078125 893.140625 1312.050781 876.558594 1308.878906 856.121094 C 1305 838.640625 1309.070312 800.179688 1321.070312 740.769531 L 1892.839844 672.03125 L 1891.910156 736.949219 L 1942.289062 752.449219 L 1949.109375 865.339844 L 1348 907.960938 "/>
<path fill-rule="nonzero" fill="rgb(61.914062%, 61.914062%, 61.914062%)" fill-opacity="1" d="M 1658.660156 1029.011719 L 1897.539062 973.050781 C 1892.109375 944.96875 1886.679688 916.890625 1881.25 888.820312 L 1658.660156 1029.011719 "/>
<path fill-rule="nonzero" fill="rgb(61.914062%, 61.914062%, 61.914062%)" fill-opacity="1" d="M 1390.578125 1308.328125 L 1442.058594 1197.210938 L 1658.269531 1240.929688 L 1761.070312 1176.671875 L 1942.429688 1152.019531 L 1658.800781 1321.898438 L 1390.578125 1308.328125 "/>
<path fill-rule="nonzero" fill="rgb(0%, 0%, 0%)" fill-opacity="1" d="M 1961.941406 1346 C 1959.75 1347.308594 1957.351562 1348.210938 1954.839844 1348.671875 L 1426.78125 1444.132812 C 1424.550781 1444.535156 1422.269531 1444.578125 1420.03125 1444.257812 L 648.183594 1334.441406 C 640.972656 1333.410156 634.796875 1328.75 631.832031 1322.101562 C 617.75 1290.46875 600.960938 1253.578125 600.261719 1216.929688 C 599.554688 1179.898438 615.253906 1145.191406 628.199219 1115.859375 C 631.886719 1107.488281 640.535156 1102.441406 649.632812 1103.339844 L 1665.46875 1203.410156 L 1651.269531 1207.128906 L 1943.488281 1002.660156 C 1953.070312 995.960938 1966.261719 998.289062 1972.960938 1007.871094 C 1979.660156 1017.441406 1977.328125 1030.640625 1967.75 1037.339844 L 1675.53125 1241.800781 C 1671.390625 1244.699219 1666.351562 1246.019531 1661.320312 1245.519531 L 645.484375 1145.460938 L 666.917969 1132.941406 C 653.121094 1164.210938 642.078125 1190.121094 642.574219 1216.121094 C 643.078125 1242.511719 655.433594 1271.058594 670.492188 1304.890625 L 654.144531 1292.539062 L 1425.988281 1402.359375 L 1419.25 1402.488281 L 1947.308594 1307.019531 L 1940.210938 1309.691406 C 1950.230469 1303.691406 1963.230469 1306.949219 1969.230469 1316.980469 C 1975.230469 1327.011719 1971.96875 1340 1961.941406 1346 Z M 1961.941406 1346 "/>
<path fill-rule="nonzero" fill="rgb(0%, 0%, 0%)" fill-opacity="1" d="M 1934.210938 877.53125 C 1933.050781 883.660156 1929.25 888.949219 1923.820312 892.011719 L 1650.621094 1046.109375 C 1646.75 1048.289062 1642.28125 1049.199219 1637.859375 1048.699219 L 579.679688 929.929688 L 601.976562 916 C 589.84375 950.121094 579.453125 979.988281 579.492188 1009.769531 C 579.53125 1039.671875 590.078125 1070.96875 602.3125 1106.53125 L 584.886719 1092.410156 L 707.53125 1107.5 C 719.132812 1108.929688 727.378906 1119.488281 725.949219 1131.089844 C 724.523438 1142.679688 713.964844 1150.929688 702.363281 1149.5 L 579.71875 1134.410156 C 571.691406 1133.429688 564.929688 1127.941406 562.296875 1120.300781 C 550.601562 1086.308594 537.222656 1048.078125 537.171875 1009.820312 C 537.121094 971.421875 550.484375 934.5 562.101562 901.820312 C 565.394531 892.558594 574.632812 886.78125 584.398438 887.878906 L 1642.578125 1006.648438 L 1629.828125 1009.25 L 1903.03125 855.148438 L 1892.640625 869.621094 C 1894.820312 858.140625 1905.898438 850.609375 1917.378906 852.789062 C 1928.859375 854.980469 1936.390625 866.058594 1934.210938 877.53125 Z M 1934.210938 877.53125 "/>
<path fill-rule="nonzero" fill="rgb(0%, 0%, 0%)" fill-opacity="1" d="M 1978.789062 883.429688 C 1976.550781 884.53125 1974.128906 885.210938 1971.640625 885.460938 L 1360.21875 946.960938 C 1358.628906 947.121094 1357.03125 947.109375 1355.449219 946.910156 L 705.027344 864.78125 C 697.28125 863.808594 690.703125 858.640625 687.914062 851.351562 L 687.878906 851.25 L 687.867188 851.21875 L 687.902344 851.320312 C 683.582031 840.019531 679.046875 828.179688 675.117188 816.230469 C 668.921875 797.398438 663.839844 777.210938 663.222656 756.25 C 662.234375 722.480469 673.082031 689.261719 682.328125 660.359375 C 685.378906 650.808594 694.71875 644.710938 704.6875 645.761719 L 772.625 652.878906 L 1323.449219 710.671875 L 1318.878906 710.691406 L 1948.878906 639.738281 L 1949.96875 681.890625 L 1123.570312 631.851562 L 1127.660156 631.699219 L 706.738281 688.019531 C 695.15625 689.570312 684.507812 681.441406 682.957031 669.859375 C 681.410156 658.269531 689.542969 647.628906 701.125 646.078125 L 1122.050781 589.761719 C 1123.398438 589.578125 1124.769531 589.53125 1126.128906 589.609375 L 1952.53125 639.648438 C 1963.488281 640.308594 1972.121094 649.25 1972.398438 660.21875 C 1972.691406 671.191406 1964.53125 680.570312 1953.621094 681.789062 L 1323.609375 752.738281 C 1322.089844 752.910156 1320.558594 752.921875 1319.039062 752.761719 L 768.207031 694.96875 L 700.273438 687.851562 L 722.636719 673.25 C 712.90625 703.671875 704.785156 729.78125 705.527344 755.011719 C 705.96875 770.140625 709.695312 785.910156 715.316406 803 C 718.878906 813.839844 723.042969 824.730469 727.429688 836.199219 L 727.46875 836.300781 L 727.480469 836.328125 L 710.328125 822.800781 L 1360.75 904.921875 L 1355.980469 904.859375 L 1967.410156 843.359375 L 1960.25 845.390625 C 1970.761719 840.269531 1983.429688 844.640625 1988.539062 855.140625 C 1993.660156 865.648438 1989.300781 878.308594 1978.789062 883.429688 Z M 1978.789062 883.429688 "/>
<path fill-rule="nonzero" fill="rgb(0%, 0%, 0%)" fill-opacity="1" d="M 750.292969 879.878906 L 592.167969 925.160156 C 580.929688 928.371094 569.214844 921.871094 566 910.640625 C 562.78125 899.410156 569.28125 887.691406 580.515625 884.46875 L 738.644531 839.191406 C 749.878906 835.980469 761.597656 842.480469 764.8125 853.710938 C 768.03125 864.949219 761.53125 876.660156 750.292969 879.878906 Z M 750.292969 879.878906 "/>
<path fill-rule="nonzero" fill="rgb(0%, 0%, 0%)" fill-opacity="1" d="M 1909.851562 692.980469 L 1916.871094 678.089844 L 1914.351562 739.808594 C 1913.929688 750.179688 1906.039062 758.71875 1895.730469 759.960938 L 1578.300781 798.070312 C 1566.699219 799.460938 1556.160156 791.179688 1554.769531 779.578125 C 1553.378906 767.980469 1561.660156 757.441406 1573.261719 756.050781 L 1890.679688 717.941406 L 1872.070312 738.089844 L 1874.589844 676.359375 C 1874.820312 670.660156 1877.351562 665.28125 1881.601562 661.46875 L 1881.609375 661.46875 C 1890.308594 653.671875 1903.679688 654.398438 1911.480469 663.101562 C 1919.289062 671.808594 1918.558594 685.179688 1909.851562 692.980469 Z M 1909.851562 692.980469 "/>
<path fill-rule="nonzero" fill="rgb(0%, 0%, 0%)" fill-opacity="1" d="M 1916.628906 747.691406 L 1900.710938 719.519531 L 1950.109375 728.808594 C 1960.089844 730.679688 1967.320312 739.378906 1967.359375 749.53125 L 1967.679688 854.109375 C 1967.71875 865.800781 1958.269531 875.308594 1946.589844 875.339844 C 1934.898438 875.371094 1925.398438 865.929688 1925.359375 854.25 L 1925.039062 749.671875 L 1942.289062 770.390625 L 1892.890625 761.109375 C 1886.761719 759.949219 1881.449219 756.148438 1878.378906 750.71875 C 1875.308594 745.289062 1874.789062 738.78125 1876.96875 732.929688 C 1881.039062 721.980469 1893.230469 716.410156 1904.179688 720.480469 C 1915.128906 724.558594 1920.710938 736.730469 1916.628906 747.691406 Z M 1916.628906 747.691406 "/>
<path fill-rule="nonzero" fill="rgb(0%, 0%, 0%)" fill-opacity="1" d="M 1911 904.121094 L 1911.941406 895.429688 L 1926.089844 1035.019531 C 1927.269531 1046.648438 1918.800781 1057.03125 1907.171875 1058.210938 C 1895.539062 1059.390625 1885.160156 1050.910156 1883.980469 1039.289062 L 1869.839844 899.691406 C 1869.539062 896.761719 1869.859375 893.800781 1870.769531 891 C 1874.390625 879.890625 1886.339844 873.820312 1897.449219 877.441406 C 1908.558594 881.070312 1914.628906 893.011719 1911 904.121094 Z M 1911 904.121094 "/>
<path fill-rule="nonzero" fill="rgb(0%, 0%, 0%)" fill-opacity="1" d="M 1897.511719 1096.25 L 1893.429688 1059.949219 L 2003.851562 1108.929688 C 2012.371094 1112.710938 2017.410156 1121.609375 2016.269531 1130.859375 C 2015.128906 1140.109375 2008.070312 1147.53125 1998.890625 1149.121094 L 1743.679688 1193.421875 C 1732.160156 1195.410156 1721.210938 1187.699219 1719.210938 1176.191406 C 1717.210938 1164.671875 1724.929688 1153.71875 1736.441406 1151.71875 L 1991.648438 1107.429688 L 1986.691406 1147.609375 L 1876.269531 1098.640625 C 1869.398438 1095.589844 1864.660156 1089.128906 1863.820312 1081.660156 C 1862.980469 1074.191406 1866.160156 1066.839844 1872.179688 1062.339844 C 1881.550781 1055.351562 1894.808594 1057.269531 1901.800781 1066.628906 C 1908.789062 1075.988281 1906.878906 1089.25 1897.511719 1096.25 Z M 1897.511719 1096.25 "/>
<path fill-rule="nonzero" fill="rgb(0%, 0%, 0%)" fill-opacity="1" d="M 1962.398438 1154.960938 L 1964.050781 1148.789062 L 1945.421875 1318.621094 C 1944.148438 1330.230469 1933.691406 1338.621094 1922.078125 1337.339844 C 1910.46875 1336.070312 1902.078125 1325.621094 1903.359375 1314 L 1921.980469 1144.171875 C 1922.21875 1142.039062 1922.769531 1139.960938 1923.628906 1138 C 1928.320312 1127.289062 1940.789062 1122.410156 1951.5 1127.089844 C 1962.199219 1131.78125 1967.089844 1144.25 1962.398438 1154.960938 Z M 1962.398438 1154.960938 "/>
<path fill-rule="nonzero" fill="rgb(0%, 0%, 0%)" fill-opacity="1" d="M 1926.25 1270.121094 C 1924.921875 1270.691406 1923.550781 1271.128906 1922.140625 1271.429688 L 1733.359375 1310.710938 C 1721.910156 1313.089844 1710.710938 1305.75 1708.328125 1294.308594 C 1705.941406 1282.859375 1713.289062 1271.660156 1724.730469 1269.28125 L 1913.511719 1229.988281 L 1909.398438 1231.300781 C 1920.128906 1226.640625 1932.589844 1231.570312 1937.238281 1242.289062 C 1941.890625 1253.011719 1936.96875 1265.46875 1926.25 1270.121094 Z M 1926.25 1270.121094 "/>
<path fill-rule="nonzero" fill="rgb(0%, 0%, 0%)" fill-opacity="1" d="M 1443.019531 1218.140625 C 1443 1218.179688 1442.988281 1218.21875 1442.96875 1218.261719 C 1426.128906 1254.078125 1412.03125 1284.808594 1410.761719 1314.03125 C 1409.5 1342.980469 1420.789062 1372.410156 1434.539062 1407.152344 C 1438.839844 1418.019531 1433.519531 1430.3125 1422.660156 1434.613281 C 1411.789062 1438.917969 1399.5 1433.59375 1395.191406 1422.730469 C 1382.199219 1389.921875 1366.75 1351.800781 1368.480469 1312.191406 C 1370.191406 1272.839844 1388.808594 1234 1404.671875 1200.25 L 1404.621094 1200.359375 C 1409.53125 1189.761719 1422.109375 1185.140625 1432.710938 1190.058594 C 1443.320312 1194.960938 1447.929688 1207.539062 1443.019531 1218.140625 Z M 1443.019531 1218.140625 "/>
<path fill-rule="nonzero" fill="rgb(0%, 0%, 0%)" fill-opacity="1" d="M 1425.730469 1350.128906 L 1411.121094 1311.800781 L 1611 1288.558594 C 1622.609375 1287.199219 1633.121094 1295.519531 1634.460938 1307.121094 C 1635.820312 1318.730469 1627.5 1329.238281 1615.890625 1330.589844 L 1416.011719 1353.839844 C 1406.390625 1354.960938 1397.25 1349.398438 1393.800781 1340.359375 C 1390.351562 1331.308594 1393.480469 1321.070312 1401.398438 1315.511719 C 1410.960938 1308.789062 1424.160156 1311.089844 1430.878906 1320.648438 C 1437.601562 1330.210938 1435.300781 1343.410156 1425.730469 1350.128906 Z M 1425.730469 1350.128906 "/>
<path fill-rule="nonzero" fill="rgb(0%, 0%, 0%)" fill-opacity="1" d="M 1328.710938 750.371094 L 1329.261719 746.640625 C 1327.230469 781.191406 1325.488281 812.460938 1329.710938 837.96875 C 1333.820312 862.710938 1343.710938 882.820312 1355.210938 905.839844 C 1360.429688 916.289062 1356.191406 929 1345.730469 934.21875 C 1335.28125 939.441406 1322.570312 935.199219 1317.351562 924.738281 C 1306.101562 902.210938 1293.25 876.769531 1287.960938 844.878906 C 1282.808594 813.75 1285.058594 777.308594 1287.019531 744.148438 C 1287.089844 742.890625 1287.28125 741.640625 1287.570312 740.421875 C 1290.320312 729.058594 1301.761719 722.078125 1313.121094 724.828125 C 1324.46875 727.570312 1331.449219 739.011719 1328.710938 750.371094 Z M 1328.710938 750.371094 "/>
<path fill-rule="nonzero" fill="rgb(0%, 0%, 0%)" fill-opacity="1" d="M 1342.449219 833.859375 L 1328.871094 795.570312 L 1478.191406 787.03125 C 1489.859375 786.359375 1499.859375 795.269531 1500.53125 806.941406 C 1501.191406 818.609375 1492.28125 828.609375 1480.609375 829.28125 L 1331.289062 837.820312 C 1321.898438 838.359375 1313.28125 832.640625 1310.140625 823.769531 C 1307 814.910156 1310.078125 805.03125 1317.710938 799.53125 C 1327.191406 792.699219 1340.421875 794.851562 1347.25 804.328125 C 1354.078125 813.808594 1351.929688 827.03125 1342.449219 833.859375 Z M 1342.449219 833.859375 "/>
<path fill-rule="nonzero" fill="rgb(0%, 0%, 0%)" fill-opacity="1" d="M 1663 1041.960938 L 1673.699219 1219.761719 C 1674.410156 1231.429688 1665.519531 1241.449219 1653.851562 1242.148438 C 1642.191406 1242.859375 1632.160156 1233.96875 1631.460938 1222.300781 L 1620.761719 1044.511719 C 1620.058594 1032.839844 1628.941406 1022.820312 1640.609375 1022.109375 C 1652.28125 1021.410156 1662.300781 1030.300781 1663 1041.960938 Z M 1663 1041.960938 "/>
<path fill-rule="nonzero" fill="rgb(0%, 0%, 0%)" fill-opacity="1" d="M 1645.761719 1077.121094 L 1778.671875 1001.121094 C 1788.808594 995.320312 1801.738281 998.839844 1807.539062 1008.980469 C 1813.339844 1019.128906 1809.820312 1032.058594 1799.679688 1037.859375 L 1666.769531 1113.859375 C 1656.628906 1119.660156 1643.699219 1116.128906 1637.898438 1105.988281 C 1632.101562 1095.839844 1635.621094 1082.921875 1645.761719 1077.121094 Z M 1645.761719 1077.121094 "/>
<path fill-rule="nonzero" fill="rgb(0%, 0%, 0%)" fill-opacity="1" d="M 862.058594 697.011719 L 862.132812 694.808594 L 865.023438 852.210938 C 865.238281 863.898438 855.941406 873.539062 844.257812 873.761719 C 832.570312 873.96875 822.925781 864.679688 822.710938 852.988281 L 819.820312 695.589844 C 819.808594 694.851562 819.832031 694.121094 819.894531 693.390625 C 820.894531 681.738281 831.144531 673.109375 842.785156 674.109375 C 854.429688 675.109375 863.058594 685.359375 862.058594 697.011719 Z M 862.058594 697.011719 "/>
<path fill-rule="nonzero" fill="rgb(0%, 0%, 0%)" fill-opacity="1" d="M 1406.578125 1124.960938 L 770.265625 1053.300781 C 758.652344 1051.988281 750.300781 1041.511719 751.609375 1029.898438 C 752.914062 1018.289062 763.390625 1009.929688 775.003906 1011.238281 L 1411.320312 1082.910156 C 1422.929688 1084.210938 1431.289062 1094.691406 1429.980469 1106.308594 C 1428.671875 1117.921875 1418.191406 1126.269531 1406.578125 1124.960938 Z M 1406.578125 1124.960938 "/>
<path fill-rule="nonzero" fill="rgb(0%, 0%, 0%)" fill-opacity="1" d="M 1134.410156 1198.769531 L 965.328125 1350.261719 C 956.625 1358.058594 943.246094 1357.320312 935.449219 1348.621094 C 927.652344 1339.910156 928.386719 1326.539062 937.089844 1318.738281 L 1106.179688 1167.25 C 1114.878906 1159.460938 1128.261719 1160.191406 1136.058594 1168.890625 C 1143.851562 1177.601562 1143.121094 1190.980469 1134.410156 1198.769531 Z M 1134.410156 1198.769531 "/>
<path fill-rule="nonzero" fill="rgb(0%, 0%, 0%)" fill-opacity="1" d="M 1248.980469 1210.078125 L 1052.410156 1375.398438 C 1043.46875 1382.929688 1030.121094 1381.769531 1022.601562 1372.828125 C 1015.078125 1363.890625 1016.230469 1350.539062 1025.179688 1343.019531 L 1221.738281 1177.691406 C 1230.679688 1170.179688 1244.03125 1171.328125 1251.550781 1180.269531 C 1259.070312 1189.210938 1257.921875 1202.558594 1248.980469 1210.078125 Z M 1248.980469 1210.078125 "/>
</svg>
